<svg xmlns="http://www.w3.org/2000/svg" width="70" height="70" fill="none" xmlns:v="https://vecta.io/nano"><g clip-path="url(#A)"><path fill="#252525" d="M0 0h70v70H0z"/><g clip-path="url(#B)"><path d="M15.286 35.5c0 1.104-.548 3.313-1.643 6.625S12 47.646 12 48.75c0 2.243.334 4.365 1.001 6.366s1.643 3.649 2.926 4.943S18.64 62 20.214 62h23a1.57 1.57 0 0 0 1.155-.492c.325-.328.488-.716.488-1.164s-.163-.837-.488-1.165a1.57 1.57 0 0 0-1.155-.492c-.479 0-.873-.155-1.181-.466s-.462-.707-.462-1.19c0-.897.342-1.941 1.027-3.131s1.506-2.415 2.464-3.675l2.875-3.908a23.18 23.18 0 0 0 2.464-4.451c.684-1.622 1.027-3.192 1.027-4.71 0-2.588-1.027-4.727-3.08-6.418.411-1.242 1.438-1.863 3.08-1.863.992 0 2.028-.354 3.106-1.061s1.925-1.449 2.541-2.226.924-1.337.924-1.682c0-.448-.163-.837-.488-1.164s-.71-.492-1.155-.492c-.274 0-.565-.241-.873-.725l-1.053-1.812c-.394-.725-.847-1.458-1.361-2.2s-1.198-1.432-2.053-2.07a7.56 7.56 0 0 0-2.875-1.32V9c-.787 0-1.711.612-2.772 1.837s-1.745 2.493-2.053 3.804c-1.643.69-2.892 1.889-3.748 3.597s-1.284 3.597-1.284 5.667a6.53 6.53 0 0 1-.642 2.847c-.428.897-1.035 1.699-1.823 2.407l-1.925 1.604c-.496.362-1.121.768-1.874 1.216-.137.104-.24.172-.308.207-1.985 1.139-3.628 2.243-4.929 3.313-2.362 1.967-4.321 4.434-5.878 7.401s-2.336 5.469-2.336 7.505a2.42 2.42 0 0 1-.051.466c-.034.172-.188.414-.462.725s-.65.466-1.129.466-.873-.267-1.181-.802-.462-1.372-.462-2.51c0-1.208.223-2.415.667-3.623s.993-2.355 1.643-3.442l1.951-3.39c.65-1.173 1.198-2.579 1.643-4.218s.667-3.373.667-5.202c0-1.656-.684-3.174-2.053-4.555s-2.875-2.07-4.518-2.07a3.16 3.16 0 0 0-2.336.957c-.633.638-.95 1.423-.95 2.355 0 .552.103 1.044.308 1.475a4.98 4.98 0 0 0 .796 1.19l.539.647c1.095 1.829 1.643 4.037 1.643 6.625z" fill="#fff"/></g></g><defs><clipPath id="A"><rect width="70" height="70" rx="10" fill="#fff"/></clipPath><clipPath id="B"><path fill="#fff" transform="matrix(-1 0 0 1 58 9)" d="M0 0h46v53H0z"/></clipPath></defs></svg>