<?xml version="1.0" encoding="UTF-8" standalone="no"?><svg width="35" height="35" viewBox="0 0 35 35" fill="none" xmlns="http://www.w3.org/2000/svg">
<path d="M9.50365 28.8667C7.36767 28.8667 5.54247 28.1273 4.02805 26.6485C2.51362 25.1698 1.75687 23.3624 1.75781 21.2265C1.75781 19.3956 2.30941 17.7643 3.41261 16.3325C4.5158 14.9007 5.95934 13.9853 7.74323 13.5863C8.28309 11.685 9.28676 10.0889 10.7542 8.79792C12.2217 7.50695 13.9174 6.72063 15.8411 6.43896V17.8113L13.5878 15.6283L11.6161 17.6L17.2495 23.2333L22.8828 17.6L20.9111 15.6283L18.6578 17.8113V6.43896C21.0755 6.76758 23.0884 7.8534 24.6967 9.69644C26.3051 11.5395 27.1088 13.7046 27.1078 16.1917C28.7274 16.3795 30.0714 17.078 31.1399 18.2873C32.2083 19.4966 32.7421 20.9105 32.7411 22.5292C32.7411 24.2896 32.1248 25.7862 30.892 27.0189C29.6592 28.2517 28.1631 28.8676 26.4036 28.8667H9.50365Z" fill="white"/>
</svg>
