<svg width="176" height="40" viewBox="0 0 176 40" fill="none" xmlns="http://www.w3.org/2000/svg">
<path d="M47.2932 33.4302C46.3832 33.4302 45.4732 33.2972 44.5632 33.0312C43.6672 32.7652 42.9392 32.4222 42.3792 32.0022L43.5552 29.6502C43.8492 29.8462 44.1712 30.0142 44.5212 30.1542C44.8852 30.3082 45.2632 30.4272 45.6552 30.5112C46.0472 30.5952 46.4462 30.6372 46.8522 30.6372C47.5662 30.6372 48.1472 30.5322 48.5952 30.3222C49.0432 30.1122 49.3792 29.7902 49.6032 29.3562C49.8272 28.9362 49.9392 28.4042 49.9392 27.7602V25.8912L50.5902 25.9962C50.4922 26.4582 50.2472 26.8782 49.8552 27.2562C49.4772 27.6342 49.0082 27.9422 48.4482 28.1802C47.8882 28.4042 47.2932 28.5162 46.6632 28.5162C45.6552 28.5162 44.7522 28.2852 43.9542 27.8232C43.1702 27.3472 42.5472 26.6962 42.0852 25.8702C41.6372 25.0302 41.4132 24.0642 41.4132 22.9722C41.4132 21.8522 41.6372 20.8652 42.0852 20.0112C42.5332 19.1432 43.1492 18.4642 43.9332 17.9742C44.7172 17.4702 45.5992 17.2182 46.5792 17.2182C46.9992 17.2182 47.3982 17.2672 47.7762 17.3652C48.1682 17.4632 48.5252 17.5962 48.8472 17.7642C49.1832 17.9182 49.4772 18.1072 49.7292 18.3312C49.9952 18.5412 50.2052 18.7722 50.3592 19.0242C50.5272 19.2762 50.6392 19.5352 50.6952 19.8012L50.0022 19.9692L50.1282 17.4492H53.3202V27.6972C53.3202 28.6072 53.1802 29.4122 52.9002 30.1122C52.6342 30.8262 52.2352 31.4282 51.7032 31.9182C51.1852 32.4222 50.5552 32.8002 49.8132 33.0522C49.0712 33.3042 48.2312 33.4302 47.2932 33.4302ZM47.3772 25.9122C47.9232 25.9122 48.3922 25.7932 48.7842 25.5552C49.1902 25.3032 49.4982 24.9602 49.7082 24.5262C49.9322 24.0922 50.0442 23.5812 50.0442 22.9932C50.0442 22.4052 49.9322 21.8942 49.7082 21.4602C49.4982 21.0122 49.1902 20.6692 48.7842 20.4312C48.3922 20.1792 47.9232 20.0532 47.3772 20.0532C46.8452 20.0532 46.3832 20.1792 45.9912 20.4312C45.5992 20.6692 45.2912 21.0122 45.0672 21.4602C44.8572 21.8942 44.7522 22.4052 44.7522 22.9932C44.7522 23.5812 44.8572 24.0922 45.0672 24.5262C45.2912 24.9602 45.5992 25.3032 45.9912 25.5552C46.3832 25.7932 46.8452 25.9122 47.3772 25.9122ZM56.2591 28.6002V13.0602L59.6191 13.0602V28.6002H56.2591ZM67.6609 28.8102C66.4989 28.8102 65.4629 28.5582 64.5529 28.0542C63.6569 27.5502 62.9429 26.8642 62.4109 25.9962C61.8929 25.1282 61.6339 24.1342 61.6339 23.0142C61.6339 21.8942 61.8929 20.9002 62.4109 20.0322C62.9429 19.1642 63.6569 18.4782 64.5529 17.9742C65.4629 17.4702 66.4989 17.2182 67.6609 17.2182C68.8229 17.2182 69.8519 17.4702 70.7479 17.9742C71.6579 18.4782 72.3719 19.1642 72.8899 20.0322C73.4079 20.9002 73.6669 21.8942 73.6669 23.0142C73.6669 24.1342 73.4079 25.1282 72.8899 25.9962C72.3719 26.8642 71.6579 27.5502 70.7479 28.0542C69.8519 28.5582 68.8229 28.8102 67.6609 28.8102ZM67.6609 25.9122C68.1649 25.9122 68.6129 25.7862 69.0049 25.5342C69.3969 25.2822 69.7049 24.9392 69.9289 24.5052C70.1529 24.0712 70.2579 23.5742 70.2439 23.0142C70.2579 22.4542 70.1529 21.9572 69.9289 21.5232C69.7049 21.0752 69.3969 20.7252 69.0049 20.4732C68.6129 20.2212 68.1649 20.0952 67.6609 20.0952C67.1569 20.0952 66.7019 20.2212 66.2959 20.4732C65.9039 20.7252 65.5959 21.0752 65.3719 21.5232C65.1479 21.9572 65.0429 22.4542 65.0569 23.0142C65.0429 23.5742 65.1479 24.0712 65.3719 24.5052C65.5959 24.9392 65.9039 25.2822 66.2959 25.5342C66.7019 25.7862 67.1569 25.9122 67.6609 25.9122ZM77.8899 28.6002L74.2149 17.4492L77.7639 17.4492L79.8219 24.6942L79.3809 24.6102L81.6909 18.9822H83.6649L86.1009 24.6312L85.6179 24.6732L87.6759 17.4492H91.2249L87.4239 28.6002H84.9459L82.5309 22.6152L82.7829 22.6572L80.3679 28.6002H77.8899ZM93.1566 28.6002V17.4492H96.5166V28.6002H93.1566ZM94.8366 15.2442C94.2066 15.2442 93.7096 15.0972 93.3456 14.8032C92.9956 14.4952 92.8206 14.0612 92.8206 13.5012C92.8206 12.9972 93.0026 12.5842 93.3666 12.2622C93.7306 11.9402 94.2206 11.7792 94.8366 11.7792C95.4666 11.7792 95.9566 11.9332 96.3066 12.2412C96.6566 12.5352 96.8316 12.9552 96.8316 13.5012C96.8316 14.0192 96.6496 14.4392 96.2856 14.7612C95.9356 15.0832 95.4526 15.2442 94.8366 15.2442ZM99.6736 28.6002V17.4492H102.866L102.971 19.7172L102.299 19.9692C102.453 19.4652 102.726 19.0102 103.118 18.6042C103.524 18.1842 104.007 17.8482 104.567 17.5962C105.127 17.3442 105.715 17.2182 106.331 17.2182C107.171 17.2182 107.878 17.3932 108.452 17.7432C109.026 18.0792 109.46 18.5902 109.754 19.2762C110.048 19.9482 110.195 20.7742 110.195 21.7542V28.6002H106.814V22.0272C106.814 21.5792 106.751 21.2082 106.625 20.9142C106.499 20.6202 106.303 20.4032 106.037 20.2632C105.785 20.1092 105.47 20.0392 105.092 20.0532C104.798 20.0532 104.525 20.1022 104.273 20.2002C104.021 20.2842 103.804 20.4172 103.622 20.5992C103.44 20.7672 103.293 20.9632 103.181 21.1872C103.083 21.4112 103.034 21.6562 103.034 21.9222V28.6002H101.375C100.983 28.6002 100.647 28.6002 100.367 28.6002C100.087 28.6002 99.8556 28.6002 99.6736 28.6002ZM118.107 33.4302C117.197 33.4302 116.287 33.2972 115.377 33.0312C114.481 32.7652 113.753 32.4222 113.193 32.0022L114.369 29.6502C114.663 29.8462 114.985 30.0142 115.335 30.1542C115.699 30.3082 116.077 30.4272 116.469 30.5112C116.861 30.5952 117.26 30.6372 117.666 30.6372C118.38 30.6372 118.961 30.5322 119.409 30.3222C119.857 30.1122 120.193 29.7902 120.417 29.3562C120.641 28.9362 120.753 28.4042 120.753 27.7602V25.8912L121.404 25.9962C121.306 26.4582 121.061 26.8782 120.669 27.2562C120.291 27.6342 119.822 27.9422 119.262 28.1802C118.702 28.4042 118.107 28.5162 117.477 28.5162C116.469 28.5162 115.566 28.2852 114.768 27.8232C113.984 27.3472 113.361 26.6962 112.899 25.8702C112.451 25.0302 112.227 24.0642 112.227 22.9722C112.227 21.8522 112.451 20.8652 112.899 20.0112C113.347 19.1432 113.963 18.4642 114.747 17.9742C115.531 17.4702 116.413 17.2182 117.393 17.2182C117.813 17.2182 118.212 17.2672 118.59 17.3652C118.982 17.4632 119.339 17.5962 119.661 17.7642C119.997 17.9182 120.291 18.1072 120.543 18.3312C120.809 18.5412 121.019 18.7722 121.173 19.0242C121.341 19.2762 121.453 19.5352 121.509 19.8012L120.816 19.9692L120.942 17.4492H124.134V27.6972C124.134 28.6072 123.994 29.4122 123.714 30.1122C123.448 30.8262 123.049 31.4282 122.517 31.9182C121.999 32.4222 121.369 32.8002 120.627 33.0522C119.885 33.3042 119.045 33.4302 118.107 33.4302ZM118.191 25.9122C118.737 25.9122 119.206 25.7932 119.598 25.5552C120.004 25.3032 120.312 24.9602 120.522 24.5262C120.746 24.0922 120.858 23.5812 120.858 22.9932C120.858 22.4052 120.746 21.8942 120.522 21.4602C120.312 21.0122 120.004 20.6692 119.598 20.4312C119.206 20.1792 118.737 20.0532 118.191 20.0532C117.659 20.0532 117.197 20.1792 116.805 20.4312C116.413 20.6692 116.105 21.0122 115.881 21.4602C115.671 21.8942 115.566 22.4052 115.566 22.9932C115.566 23.5812 115.671 24.0922 115.881 24.5262C116.105 24.9602 116.413 25.3032 116.805 25.5552C117.197 25.7932 117.659 25.9122 118.191 25.9122ZM130.286 25.3242L129.047 22.8042L134.255 17.4492L138.686 17.4492L130.286 25.3242ZM127.052 28.6002V13.0602H130.412V28.6002H127.052ZM134.612 28.6002L130.685 23.5182L133.058 21.6702L138.581 28.6002H134.612ZM140.386 28.6002V17.4492H143.746V28.6002L140.386 28.6002ZM142.066 15.2442C141.436 15.2442 140.939 15.0972 140.575 14.8032C140.225 14.4952 140.05 14.0612 140.05 13.5012C140.05 12.9972 140.232 12.5842 140.596 12.2622C140.96 11.9402 141.45 11.7792 142.066 11.7792C142.696 11.7792 143.186 11.9332 143.536 12.2412C143.886 12.5352 144.061 12.9552 144.061 13.5012C144.061 14.0192 143.879 14.4392 143.515 14.7612C143.165 15.0832 142.682 15.2442 142.066 15.2442ZM147.827 28.6002V14.6352H151.187V28.6002H147.827ZM145.853 20.3892V17.4492H153.35V20.3892H145.853ZM156.194 28.6002V14.6352H159.554V28.6002H156.194ZM154.22 20.3892V17.4492H161.717V20.3892H154.22ZM165.044 33.4302L167.585 27.4452L167.627 29.1672L162.251 17.4492H166.052L168.404 23.0562C168.53 23.3362 168.649 23.6372 168.761 23.9592C168.873 24.2812 168.957 24.5892 169.013 24.8832L168.551 25.1562C168.635 24.9462 168.726 24.6872 168.824 24.3792C168.936 24.0572 169.055 23.7142 169.181 23.3502L171.239 17.4492H175.061L170.315 28.6002L168.383 33.4302H165.044Z" fill="white"/>
<path d="M7.2 20.2C7.2 20.9583 6.83333 22.475 6.1 24.75C5.36667 27.025 5 28.5417 5 29.3C5 30.8404 5.22344 32.2978 5.67031 33.6723C6.11719 35.0467 6.77031 36.1783 7.62969 37.067C8.48906 37.9557 9.44583 38.4 10.5 38.4H25.9C26.1979 38.4 26.4557 38.2874 26.6734 38.0623C26.8911 37.8372 27 37.5706 27 37.2625C27 36.9544 26.8911 36.6878 26.6734 36.4627C26.4557 36.2376 26.1979 36.125 25.9 36.125C25.5792 36.125 25.3156 36.0184 25.1094 35.8051C24.9031 35.5918 24.8 35.3193 24.8 34.9875C24.8 34.3714 25.0292 33.6545 25.4875 32.8369C25.9458 32.0193 26.4958 31.1781 27.1375 30.3131C27.7792 29.4481 28.4208 28.5535 29.0625 27.6293C29.7042 26.7051 30.2542 25.6861 30.7125 24.5723C31.1708 23.4585 31.4 22.3802 31.4 21.3375C31.4 19.5602 30.7125 18.0909 29.3375 16.9297C29.6125 16.0766 30.3 15.65 31.4 15.65C32.0646 15.65 32.7578 15.4071 33.4797 14.9213C34.2016 14.4355 34.7688 13.926 35.1813 13.3928C35.5938 12.8596 35.8 12.4745 35.8 12.2375C35.8 11.9294 35.6911 11.6628 35.4734 11.4377C35.2557 11.2126 34.9979 11.1 34.7 11.1C34.5167 11.1 34.3219 10.9341 34.1156 10.6023C33.9094 10.2706 33.6745 9.85586 33.4109 9.3582C33.1474 8.86055 32.8437 8.35697 32.5 7.84746C32.1562 7.33795 31.6979 6.864 31.125 6.42559C30.5521 5.98717 29.9104 5.68503 29.2 5.51914V2C28.6729 2 28.0542 2.42064 27.3438 3.26191C26.6333 4.10319 26.175 4.97409 25.9688 5.87461C24.8688 6.34857 24.0323 7.17207 23.4594 8.34512C22.8865 9.51816 22.6 10.8156 22.6 12.2375C22.6 12.9247 22.4568 13.5764 22.1703 14.1926C21.8839 14.8087 21.4771 15.3597 20.95 15.8455C20.4229 16.3313 19.9932 16.6986 19.6609 16.9475C19.3286 17.1963 18.9104 17.4747 18.4062 17.7828C18.3146 17.8539 18.2458 17.9013 18.2 17.925C16.8708 18.707 15.7708 19.4654 14.9 20.2C13.3188 21.5508 12.0068 23.2452 10.9641 25.2832C9.92135 27.3212 9.4 29.0393 9.4 30.4375C9.4 30.5323 9.38854 30.6389 9.36562 30.7574C9.34271 30.8759 9.23958 31.0418 9.05625 31.2551C8.87292 31.4684 8.62083 31.575 8.3 31.575C7.97917 31.575 7.71563 31.3913 7.50938 31.024C7.30313 30.6567 7.2 30.082 7.2 29.3C7.2 28.4706 7.34896 27.6411 7.64687 26.8117C7.94479 25.9823 8.31146 25.1943 8.74688 24.4479C9.18229 23.7014 9.61771 22.9253 10.0531 22.1195C10.4885 21.3138 10.8552 20.3481 11.1531 19.2225C11.451 18.0968 11.6 16.906 11.6 15.65C11.6 14.5125 11.1417 13.4698 10.225 12.5219C9.30833 11.574 8.3 11.1 7.2 11.1C6.58125 11.1 6.0599 11.3192 5.63594 11.7576C5.21198 12.196 5 12.7352 5 13.375C5 13.7542 5.06875 14.0919 5.20625 14.3881C5.34375 14.6843 5.52135 14.9568 5.73906 15.2057C5.95677 15.4545 6.07708 15.6026 6.1 15.65C6.83333 16.906 7.2 18.4227 7.2 20.2Z" fill="white"/>
</svg>
